<?xml version="1.0" standalone="no"?>
<!DOCTYPE svg PUBLIC "-//W3C//DTD SVG 20010904//EN"
 "http://www.w3.org/TR/2001/REC-SVG-20010904/DTD/svg10.dtd">
<svg version="1.0" xmlns="http://www.w3.org/2000/svg"
 width="1920.000000pt" height="1080.000000pt" viewBox="0 0 1920.000000 1080.000000"
 preserveAspectRatio="xMidYMid meet">

<g transform="translate(0.000000,1080.000000) scale(0.100000,-0.100000)"
fill="#000000" stroke="none">
<path d="M3503 7589 c-12 -4 -26 -17 -32 -28 -7 -13 -11 -132 -11 -338 0 -351
2 -363 59 -363 60 0 61 4 61 366 0 340 -1 353 -40 366 -8 3 -25 2 -37 -3z"/>
<path d="M2757 7079 c-15 -11 -27 -27 -27 -35 0 -23 108 -276 127 -296 20 -22
42 -23 71 -2 14 9 22 26 22 43 0 26 -101 276 -117 292 -21 19 -51 18 -76 -2z"/>
<path d="M4202 7092 c-17 -12 -122 -266 -122 -296 0 -14 7 -32 16 -40 19 -19
67 -21 82 -3 5 6 35 74 66 150 52 126 56 140 44 165 -14 28 -60 41 -86 24z"/>
<path d="M1855 6965 c-14 -13 -25 -32 -25 -42 0 -22 519 -543 541 -543 30 0
59 30 59 63 0 28 -29 61 -258 289 -143 144 -265 258 -275 258 -10 0 -29 -11
-42 -25z"/>
<path d="M4873 6728 c-190 -190 -263 -269 -263 -285 0 -29 33 -63 62 -63 34 0
538 510 538 545 0 29 -32 65 -57 65 -9 0 -135 -118 -280 -262z"/>
<path d="M3364 6691 c-379 -44 -733 -248 -965 -557 -252 -335 -339 -771 -238
-1183 23 -94 54 -172 72 -183 20 -13 55 -9 72 9 21 20 17 49 -26 203 -31 110
-32 123 -33 305 -1 204 4 241 56 405 58 183 156 346 292 488 434 452 1107 529
1631 188 105 -68 247 -203 327 -311 66 -88 166 -283 197 -385 37 -119 54 -239
53 -380 0 -150 -15 -241 -63 -397 -31 -97 -31 -103 -15 -127 20 -31 65 -35 88
-8 24 26 74 194 93 311 21 125 16 403 -10 514 -57 254 -185 493 -360 676 -211
220 -451 353 -737 411 -116 23 -324 33 -434 21z"/>
<path d="M6461 6459 c-77 -23 -174 -163 -239 -349 -41 -116 -97 -364 -123
-545 -12 -82 -23 -155 -24 -160 -2 -6 -39 -23 -84 -39 -66 -23 -82 -33 -87
-52 -13 -51 32 -67 106 -38 23 9 43 14 46 11 3 -3 1 -52 -5 -109 -6 -57 -14
-180 -18 -274 -6 -168 -6 -171 16 -186 28 -20 60 -12 65 16 3 11 7 95 11 186
5 144 28 397 37 405 18 17 350 105 492 131 l38 7 -3 -309 c-2 -170 0 -315 4
-321 5 -7 19 -13 31 -13 49 0 51 12 56 344 l5 311 55 7 c30 4 65 10 76 13 26
6 37 41 22 68 -9 18 -17 19 -84 13 l-74 -7 0 93 c0 160 -20 419 -40 515 -36
181 -101 269 -210 286 -19 3 -50 1 -69 -4z m118 -119 c39 -39 68 -118 80 -220
14 -106 34 -537 27 -555 -3 -8 -15 -15 -27 -15 -33 0 -187 -37 -342 -82 -76
-22 -140 -38 -141 -36 -6 6 52 330 79 443 94 399 215 573 324 465z"/>
<path d="M10190 6460 c-10 -6 -15 -31 -17 -82 -26 -619 -106 -1196 -193 -1390
-26 -59 -66 -108 -89 -108 -89 0 -141 317 -141 854 0 198 -3 275 -12 284 -16
16 -53 15 -66 -1 -6 -7 -47 -217 -92 -467 -109 -613 -133 -716 -174 -742 -21
-14 -63 -8 -80 11 -10 11 -26 47 -36 80 -33 105 -43 262 -37 560 6 287 21 468
58 732 13 85 20 163 16 172 -9 23 -63 23 -76 -1 -24 -45 -75 -484 -87 -747 -6
-142 -8 -153 -37 -205 -16 -30 -54 -87 -83 -126 -91 -121 -163 -173 -203 -147
-24 16 -20 204 7 302 24 86 18 111 -27 111 -26 0 -34 -10 -96 -120 -108 -195
-198 -300 -256 -300 -40 0 -52 22 -47 84 10 120 124 288 239 350 27 15 84 34
126 41 71 12 92 24 93 52 0 23 -32 43 -68 43 -194 -1 -408 -189 -467 -410 -28
-105 -15 -180 40 -230 64 -60 187 -11 283 111 l47 61 6 -54 c7 -62 17 -83 54
-118 35 -32 102 -33 163 -1 47 24 160 133 189 181 9 17 20 30 24 30 3 0 9 -54
12 -120 12 -215 60 -372 128 -421 38 -26 111 -29 156 -6 66 35 102 140 166
492 47 256 44 255 67 17 28 -289 96 -442 196 -442 178 0 297 364 359 1100 23
278 31 546 15 565 -14 17 -38 19 -60 5z"/>
<path d="M11197 6453 c-32 -36 -132 -630 -152 -903 -7 -87 -11 -100 -44 -150
-57 -88 -168 -192 -241 -228 -166 -82 -320 -55 -351 61 -18 67 -8 83 60 96
171 34 322 175 297 277 -4 15 -22 42 -41 61 -28 28 -40 33 -81 33 -66 -1 -125
-29 -183 -89 -155 -160 -191 -404 -75 -513 50 -46 99 -62 199 -61 148 1 260
55 390 189 l73 75 7 -48 c31 -210 166 -280 314 -163 49 39 140 141 162 181 15
28 21 18 36 -52 17 -86 53 -142 106 -168 55 -27 80 -26 142 3 53 24 112 78
178 161 l40 50 -5 -97 c-6 -111 2 -132 46 -126 22 2 31 11 42 38 140 374 208
510 254 510 27 0 40 -49 40 -149 0 -140 27 -204 103 -242 69 -36 184 -12 253
52 24 22 34 16 34 -20 1 -64 62 -146 130 -174 177 -73 418 23 580 232 30 39
58 71 61 71 5 0 11 -16 35 -101 3 -11 -19 -35 -67 -74 -39 -31 -79 -71 -90
-89 -19 -31 -25 -80 -13 -111 10 -24 58 -45 107 -45 91 0 154 76 164 199 l6
70 85 57 c85 57 237 134 264 134 13 0 58 -116 58 -148 0 -6 -31 -37 -70 -68
-80 -65 -110 -107 -110 -157 0 -78 114 -116 190 -65 63 44 89 101 90 199 l0
45 94 62 c51 34 129 78 172 97 124 55 129 59 132 86 5 44 -21 55 -81 34 -64
-22 -197 -91 -272 -141 -32 -21 -60 -33 -65 -28 -16 17 -72 210 -77 266 -5 51
-3 59 21 83 28 28 41 29 119 10 33 -9 57 8 57 41 0 37 -68 67 -137 62 -65 -6
-100 -29 -131 -89 -20 -38 -23 -54 -19 -120 l5 -76 -85 -38 c-47 -21 -124 -63
-170 -92 -47 -29 -88 -53 -92 -53 -12 0 -75 215 -79 270 -7 90 38 129 114 99
52 -19 95 10 78 54 -8 22 -76 47 -128 47 -48 0 -96 -27 -130 -73 -18 -25 -21
-43 -21 -135 l-1 -107 -44 -65 c-64 -95 -166 -192 -241 -229 -165 -81 -319
-53 -350 62 -18 67 -8 83 60 96 81 16 177 66 232 121 80 80 89 162 23 219 -92
81 -245 5 -351 -174 -55 -94 -115 -160 -177 -195 -64 -37 -105 -38 -138 -5
-31 31 -38 62 -38 174 -1 133 -29 192 -101 211 -79 21 -144 -35 -215 -185 -48
-102 -50 -97 -30 73 6 56 8 109 3 117 -9 18 -63 20 -73 4 -4 -6 -12 -58 -19
-116 -12 -92 -18 -111 -54 -171 -98 -162 -226 -291 -275 -276 -34 10 -54 33
-73 83 -28 71 -24 382 6 596 21 149 95 569 107 607 5 16 -27 58 -44 58 -27 0
-43 -33 -62 -125 -44 -212 -99 -566 -110 -705 -7 -80 -13 -154 -15 -165 -6
-32 -120 -198 -180 -264 -30 -32 -71 -66 -91 -76 -35 -16 -37 -16 -63 2 -39
30 -59 70 -71 148 -25 156 19 574 106 999 29 144 30 162 5 176 -27 14 -35 13
-54 -7z m-527 -872 c0 -15 -9 -40 -20 -53 -36 -47 -169 -117 -200 -106 -6 2 9
32 32 67 45 70 113 121 160 121 24 0 28 -4 28 -29z m2480 -3 c0 -52 -99 -131
-192 -153 -38 -10 -36 5 9 72 41 62 111 113 155 113 25 0 28 -4 28 -32z m442
-517 c-18 -25 -72 -42 -72 -23 0 5 19 27 42 48 37 33 43 36 46 20 2 -10 -5
-30 -16 -45z m527 30 c-14 -39 -43 -63 -71 -59 -22 4 -21 6 21 46 52 49 64 52
50 13z"/>
<path d="M1732 6044 c-27 -19 -29 -65 -4 -86 22 -19 267 -118 292 -118 49 0
69 77 27 105 -27 18 -265 115 -282 115 -6 0 -21 -7 -33 -16z"/>
<path d="M5032 6005 l-73 -34 3 -38 c2 -30 9 -41 30 -51 35 -17 76 1 84 37 3
14 12 42 21 63 8 20 14 41 12 46 -2 6 -36 -4 -77 -23z"/>
<path d="M3430 5824 c-105 -28 -203 -114 -252 -220 -19 -40 -23 -66 -23 -144
0 -86 3 -101 32 -162 139 -293 547 -294 686 0 29 61 32 76 32 162 0 81 -4 103
-27 151 -49 106 -142 185 -253 214 -72 18 -123 18 -195 -1z m176 -119 c137
-41 216 -194 170 -331 -49 -149 -219 -219 -361 -149 -167 81 -196 307 -54 428
71 62 154 79 245 52z"/>
<path d="M7883 5705 c-19 -13 -22 -29 -28 -135 -7 -114 -9 -123 -44 -182 -44
-76 -141 -181 -181 -198 -72 -30 -93 22 -92 224 1 82 4 161 7 176 9 39 -23 75
-58 66 -21 -5 -29 -15 -37 -49 -67 -264 -205 -514 -278 -505 -63 7 -78 135
-45 375 18 133 14 153 -33 153 -32 0 -40 -20 -58 -142 -20 -136 -21 -298 -1
-365 29 -98 113 -139 201 -97 49 23 126 114 165 194 19 38 37 69 40 69 4 1 9
-17 13 -40 15 -92 74 -159 142 -159 47 0 127 45 183 105 l51 54 0 -90 c0 -86
1 -90 25 -101 21 -9 28 -8 45 7 11 10 20 31 20 47 0 83 67 244 144 345 84 110
172 172 247 173 40 0 59 15 59 45 0 33 -20 45 -73 45 -86 0 -193 -68 -278
-176 -24 -31 -52 -66 -61 -78 -16 -20 -17 -15 -15 103 2 114 0 124 -18 137
-18 12 -24 12 -42 -1z"/>
<path d="M1430 5347 c-18 -9 -26 -22 -28 -45 -6 -62 -6 -62 273 -62 231 0 253
1 268 18 23 25 21 55 -4 78 -19 17 -41 19 -253 22 -173 2 -237 -1 -256 -11z"/>
<path d="M3117 5095 c-100 -38 -155 -72 -200 -126 -18 -21 -81 -130 -141 -243
-60 -113 -114 -210 -120 -215 -6 -5 -152 -61 -323 -125 -172 -63 -326 -125
-343 -138 -96 -70 -90 -238 11 -305 78 -52 94 -49 514 92 209 71 388 135 399
144 10 9 47 53 83 99 36 46 67 81 69 79 3 -2 -17 -173 -43 -378 -27 -218 -44
-385 -40 -401 5 -18 16 -30 31 -34 41 -10 65 4 76 44 15 58 132 994 126 1018
-3 11 -17 26 -30 34 -38 20 -59 1 -211 -194 -124 -160 -139 -176 -183 -191
-274 -96 -670 -225 -689 -225 -53 0 -83 76 -45 117 10 12 150 68 342 138 179
65 330 123 337 128 7 5 67 111 133 235 79 148 134 240 158 263 25 24 70 48
135 74 118 45 143 79 97 125 -26 26 -39 25 -143 -15z"/>
<path d="M3800 5110 c-47 -47 -21 -80 97 -125 135 -52 153 -73 292 -335 62
-118 121 -222 130 -231 9 -9 162 -69 341 -134 179 -65 333 -125 343 -133 40
-35 7 -122 -47 -122 -13 0 -184 54 -379 121 l-355 121 -137 174 c-75 96 -147
181 -160 190 -18 12 -28 12 -49 3 -14 -7 -28 -20 -31 -30 -5 -14 100 -886 120
-1006 15 -89 115 -82 115 8 0 18 -20 193 -45 388 -25 194 -44 355 -42 358 3 2
40 -40 83 -93 l79 -97 380 -128 c220 -75 396 -129 418 -129 42 0 101 22 130
48 79 71 72 232 -13 292 -16 11 -169 72 -342 136 -172 63 -319 121 -325 127
-7 7 -61 102 -119 212 -58 110 -115 213 -126 228 -37 51 -116 105 -210 141
-107 42 -121 43 -148 16z"/>
<path d="M4987 4732 c-20 -22 -22 -52 -4 -75 6 -9 66 -37 132 -63 66 -25 123
-48 126 -50 3 -1 -13 33 -35 76 -40 78 -42 80 -104 105 -74 30 -94 31 -115 7z"/>
<path d="M1886 4660 c-77 -33 -143 -65 -148 -72 -17 -26 -4 -72 24 -86 24 -11
38 -7 160 44 133 57 168 80 168 114 0 17 -43 60 -59 60 -3 0 -69 -27 -145 -60z"/>
</g>
</svg>
